<svg xmlns="http://www.w3.org/2000/svg" width="805" height="600"><rect width="805" height="600" x="0" y="0" fill="#FFFFFF" id="background"/><g transform="translate(402.5,300)" id="viz"><path fill="#1fb432" display="" d="M0.9999920729479248,-287.99826391118063A288,288,0,0,1,172.63802720886062,-230.52139068084915L86.52050847454308,-116.35807498109669A145,145,0,0,0,0.9999920729479153,-144.99655173780528Z"><title>France</title></path><path fill="#1fb432" display="" d="M174.2346851647149,-229.31697382782784A288,288,0,0,1,262.33838339225485,-118.8384306490889L131.87442967058,-60.283785540220094A145,145,0,0,0,88.11716643039733,-115.15365812807536Z"><title>États-Unis</title></path><path fill="#1fb432" display="" d="M263.15731318062205,-117.01379627871236A288,288,0,0,1,287.7531332979098,11.922008104146713L144.89541433317115,5.50626054765506A145,145,0,0,0,132.6933594589472,-58.45915116984355Z"><title>Royaume-Uni</title></path><path fill="#1fb432" display="" d="M287.6634043485005,13.919978399089176A288,288,0,0,1,272.586955035345,92.95349344999791L137.39941291492755,46.329270775970976A145,145,0,0,0,144.8056853837618,7.504230842597527Z"><title>Suède</title></path><path fill="#1fb432" display="" d="M271.9348809815063,94.84419067910281A288,288,0,0,1,246.41652170566755,149.0734645417496L124.32015823848708,74.62907111546768A145,145,0,0,0,136.74733886108885,48.21996800507587Z"><title>Empire allemand</title></path><path fill="#1fb432" display="" d="M245.3753620975722,150.78107200668563A288,288,0,0,1,208.85472311710413,198.30205402788386L105.4938200396655,99.47891200369388A145,145,0,0,0,123.27899863039175,76.33667858040373Z"><title>Empire russe</title></path><path fill="#1fb432" display="" d="M207.47260877530965,199.74763229627357A288,288,0,0,1,161.63796949304924,238.36351821989052L81.79070398395001,119.73003274788604A145,145,0,0,0,104.11170569787102,100.92449027208357Z"><title>Espagne</title></path><path fill="#1fb432" display="" d="M159.97879292438893,239.4802409687603A288,288,0,0,1,116.47893117859186,263.3944923332545L59.09767086051862,132.41021599129658A145,145,0,0,0,80.1315274152897,120.84675549675578Z"><title>Union soviétique</title></path><path fill="#1fb432" display="" d="M114.64701971358826,264.197011472106A288,288,0,0,1,67.57616417687076,279.95975074131746L34.50518996990461,140.8346259452582A145,145,0,0,0,57.26575939551501,133.21273513014808Z"><title>royaume d'Italie</title></path><path fill="#1fb432" display="" d="M65.63039695731085,280.4222726447131A288,288,0,0,1,16.501443656651944,287.5268724089043L8.803683882693,144.73249514222303A145,145,0,0,0,32.55942275034471,141.29714784865382Z"><title>Allemagne</title></path><path fill="#1fb432" display="" d="M14.504359241954985,287.6345312423046A288,288,0,0,1,-35.10364684012474,285.8526438193703L-17.180779848203596,143.97854285902312A145,145,0,0,0,6.806599467996043,144.84015397562334Z"><title>Royaume-Uni de Grande-Bretagne et d'Irlande</title></path><path fill="#1fb432" display="" d="M-37.087860513663855,285.6019793392879A288,288,0,0,1,-85.58047724408299,274.99087605714305L-42.61303917838619,138.59700174239455A145,145,0,0,0,-19.164993521742712,143.7278783789407Z"><title>Pologne</title></path><path fill="#1fb432" display="" d="M-87.48804591638026,274.38994482621507A288,288,0,0,1,-124.05680187927318,259.91135009361705L-62.01068430127623,131.07125936866348A145,145,0,0,0,-44.52060785068346,137.9960705114666Z"><title>Norvège</title></path><path fill="#1fb432" display="" d="M-125.8587253310237,259.04358949421993A288,288,0,0,1,-151.27925911798621,245.0685327836138L-75.74194491740279,123.64529016557454A145,145,0,0,0,-63.812607753026704,130.2034987692664Z"><title>Irlande</title></path><path fill="#1fb432" display="" d="M-152.9774524926565,244.01208787446785A288,288,0,0,1,-176.74829774045392,227.3852221360303L-88.59531032817789,114.78619685246939A145,145,0,0,0,-77.44013829207306,122.58884525642861Z"><title>royaume de Prusse</title></path><path fill="#1fb432" display="" d="M-178.32307794404628,226.15233775612754A288,288,0,0,1,-200.16871609961066,207.0663784756798L-100.42180221149674,104.59666170865603A145,145,0,0,0,-90.17009053177021,113.55331247256666Z"><title>république de Weimar</title></path><path fill="#1fb432" display="" d="M-201.6018304718359,205.67134450478298A288,288,0,0,1,-221.26905730314587,184.34750955783795L-111.08434433394837,93.19478764339127A145,145,0,0,0,-101.85491658372193,103.20162773775928Z"><title>Italie</title></path><path fill="#1fb432" display="" d="M-222.5438951768569,182.8064952880836A288,288,0,0,1,-239.80475556397738,159.49194089013108L-120.45935134772633,80.71272931133616A145,145,0,0,0,-112.35918220765936,91.65377337363697Z"><title>Japon</title></path><path fill="#1fb432" display="" d="M-240.90654079290346,157.8228076140998A288,288,0,0,1,-255.5609708664604,132.7877636297569L-128.43816121997014,67.29516135973641A145,145,0,0,0,-121.56113657665236,79.04359603530493Z"><title>Royaume du Danemark</title></path><path fill="#1fb432" display="" d="M-256.47693308972873,131.0098576172298A288,288,0,0,1,-264.42938019680867,114.11004727337374L-132.93533433098122,57.906794819867564A145,145,0,0,0,-129.35412344323842,65.51725534720939Z"><title>Chine</title></path><path fill="#1fb432" display="" d="M-265.21542402905675,112.27100630655994A288,288,0,0,1,-271.9348809815063,94.84419067910271L-136.74733886108888,48.2199680050758A145,145,0,0,0,-133.72137816322925,56.06775385305384Z"><title>Suisse</title></path><path fill="#1fb432" display="" d="M-272.58695503534506,92.95349344999781A288,288,0,0,1,-278.0387887477792,75.08949295119643L-139.85452716922427,38.28460826850276A145,145,0,0,0,-137.39941291492755,46.32927077597096Z"><title>Chili</title></path><path fill="#1fb432" display="" d="M-278.55353213607987,73.15688439589213A288,288,0,0,1,-282.7096430427447,54.94777275416969L-142.24088434246457,28.1519239391133A145,145,0,0,0,-140.36927055752486,36.35199971319851Z"><title>Afrique du Sud</title></path><path fill="#1fb432" display="" d="M-283.08440270115324,52.98321382599673A288,288,0,0,1,-285.923369585287,34.522843524185284L-143.89411073928744,17.874140386314668A145,145,0,0,0,-142.61564400087312,26.1873650109404Z"><title>Australie</title></path><path fill="#1fb432" display="" d="M-286.15621394651464,32.536459853471314A288,288,0,0,1,-287.66340434850053,13.919978399088704L-144.8056853837618,7.504230842597257A145,145,0,0,0,-144.12695510051506,15.887756715600764Z"><title>Autriche</title></path><path fill="#1fb432" display="" d="M-287.75313329790987,11.922008104146233A288,288,0,0,1,-287.92077893315997,-6.754632375077852L-144.9709098839313,-2.9043566284227085A145,145,0,0,0,-144.89541433317115,5.506260547654852Z"><title>Tchécoslovaquie</title></path><path fill="#1fb432" display="" d="M-287.8669299943353,-8.753891456743377A288,288,0,0,1,-286.6941667921902,-27.39442876447419L-144.38893264802854,-13.297974611311101A145,145,0,0,0,-144.91706094510673,-4.903615710088165Z"><title>Grèce</title></path><path fill="#1fb432" display="" d="M-286.4970175106103,-29.384672152757926A288,288,0,0,1,-285.5260432141067,-37.66800560815598L-143.81853060349366,-18.4724187656071A145,145,0,0,0,-144.19178336644867,-15.288217999594778Z"><title>apatride</title></path><path fill="#1fb432" display="" d="M-285.2575788106196,-39.64988942107108A288,288,0,0,1,-283.98989006788827,-47.89303017380237L-143.06275327370636,-23.62305284561289A145,145,0,0,0,-143.55006620000654,-20.454302578522135Z"><title>Ville libre de Dantzig</title></path><path fill="#1fb432" display="" d="M-283.65045658041515,-49.863999856830624A288,288,0,0,1,-282.0876873823007,-58.056322888255345L-142.12257481990656,-28.743237927555544A145,145,0,0,0,-142.7233197862333,-25.594022528641073Z"><title>Égypte</title></path><path fill="#1fb432" display="" d="M-281.67772232455644,-60.01383795467586A288,288,0,0,1,-279.82188700665716,-68.14478374779395L-140.99920708766325,-33.826374334980805A145,145,0,0,0,-141.71260976216223,-30.70075299397599Z"><title>Empire ottoman</title></path><path fill="#1fb432" display="" d="M-279.34191880421514,-70.08632105325042A288,288,0,0,1,-277.19540945049954,-78.14540920341969L-139.69409804486313,-38.865910145423946A145,145,0,0,0,-140.51923888522126,-35.767911640437205Z"><title>Royaume d'Égypte</title></path><path fill="#1fb432" display="" d="M-276.64605675967664,-80.06846619813416A288,288,0,0,1,-274.2116401192005,-88.04530892181626L-138.20892991534805,-43.85534963552805A145,145,0,0,0,-139.14474535404028,-40.78896714013836Z"><title>République arabe unie</title></path><path fill="#1fb432" display="" d="M-273.5936110296382,-89.94740687625747A288,288,0,0,1,-270.8744249503357,-97.83172240037968L-136.5456170106084,-48.78826165372419A145,145,0,0,0,-137.5909008257858,-45.75744758996919Z"><title>Sultanat d'Égypte</title></path><path fill="#1fb432" display="" d="M-270.1885160723059,-99.71040960022816A288,288,0,0,1,-267.1880654564521,-107.4920354149027L-134.70630326232583,-53.658287909681796A145,145,0,0,0,-135.85970813257865,-50.66694885357263Z"><title>République d'Égypte</title></path><path fill="#1fb432" display="" d="M-266.43516089406427,-109.34489032119468A288,288,0,0,1,-263.1573131806216,-117.01379627871339L-132.693359458947,-58.4591511698441A145,145,0,0,0,-133.95339869993808,-55.511142815973706Z"><title>Raj britannique</title></path><path fill="#1fb432" display="" d="M-262.33838339225434,-118.83843064908993A288,288,0,0,1,-258.7873635719272,-126.3847318923104L-130.50938018984903,-63.184663348485465A145,145,0,0,0,-131.8744296705798,-60.28378554022058Z"><title>Danemark</title></path><path fill="#1fb432" display="" d="M-257.90346411935326,-128.1787938593489A288,288,0,0,1,-254.08384928877413,-135.59276356280785L-128.15718050103678,-67.82873348386124A145,145,0,0,0,-129.62548073727513,-64.97872531552393Z"><title>Russie</title></path><path fill="#1fb432" display="" d="M-253.13611947659126,-137.35394066546803A288,288,0,0,1,-249.05283293866006,-144.6260225727994L-125.6397922666815,-72.38537558916939A145,145,0,0,0,-127.20945068885395,-69.58991058652134Z"><title>Russie soviétique</title></path><path fill="#1fb432" display="" d="M-248.04249434578117,-146.35204473707606A288,288,0,0,1,-243.70079926376033,-153.47286547857368L-122.96046028117843,-76.84871636820449A145,145,0,0,0,-124.62945367380267,-74.11139775344596Z"><title>Portugal</title></path><path fill="#1fb432" display="" d="M-242.6291541688562,-155.16150794351483A288,288,0,0,1,-238.03464678240226,-162.12188911796267L-120.12263807676027,-81.21300278575879A145,145,0,0,0,-121.88881518627429,-78.53735883314556Z"><title>Roumanie</title></path><path fill="#1fb432" display="" d="M-236.90307648532564,-163.77097530328123A288,288,0,0,1,-232.06167889720098,-170.56194530847839L-117.12998347205743,-85.47260948301248A145,145,0,0,0,-118.99106777968368,-82.86208897107728Z"><title>Pérou</title></path><path fill="#1fb432" display="" d="M-230.87164193855665,-172.16934962006127A288,288,0,0,1,-225.7895944813189,-178.78215521679329L-113.98635385734279,-89.62204602835529A145,145,0,0,0,-115.93994651341313,-87.08001379459526Z"><title>République dominicaine</title></path><path fill="#1fb432" display="" d="M-224.5426247624737,-180.34580578649155A288,288,0,0,1,-219.22647795498227,-186.7719233810416L-110.69580122253801,-93.65596399429324A145,145,0,0,0,-112.73938413849764,-91.18569659805351Z"><title>État libre d'Irlande</title></path><path fill="#1fb432" display="" d="M-217.92418276093878,-188.28980473721074A288,288,0,0,1,-212.3807888650458,-194.52095136786897L-107.26256693439018,-97.56916385131865A145,145,0,0,0,-109.39350602849457,-95.17384535046233Z"><title>Nigeria</title></path><path fill="#1fb432" display="" d="M-211.024846792728,-195.9911070332164A288,288,0,0,1,-205.2613509810367,-202.0192510466259L-103.6910762695506,-101.35660166985788A145,145,0,0,0,-105.90662486207243,-99.03931951666601Z"><title>Maurice</title></path><path fill="#1fb432" display="" d="M-203.85350977565787,-203.4397860600177A288,288,0,0,1,-197.8773409217333,-209.25715746359583L-99.98593271060246,-105.01339562165809A145,145,0,0,0,-102.2832350641718,-102.77713668324961Z"><title>Trinité-et-Tobago</title></path><path fill="#1fb432" display="" d="M-196.41941522403505,-210.62624082257207A288,288,0,0,1,-190.23827632693687,-216.22534129966363L-96.15191201238942,-108.53483227223288A145,145,0,0,0,-98.52800701290425,-106.38247898063426Z"><title>Lituanie</title></path><path fill="#1fb432" display="" d="M-188.7321453342031,-217.54120832051393A288,288,0,0,1,-182.3540035896844,-222.9148208953666L-92.19395604629351,-111.91637265625661A145,145,0,0,0,-94.64578101965573,-109.85069929308314Z"><title>république fédérative socialiste de Yougoslavie</title></path><path fill="#1fb432" display="" d="M-180.80160863354493,-224.17577548772402A288,288,0,0,1,-174.23468516471343,-229.31697382782895L-88.11716643039658,-115.15365812807593A145,145,0,0,0,-90.64156109015408,-113.177327248614Z"><title>Belgique</title></path><path fill="#1fb432" display="" d="M-172.63802720885914,-230.5213906808503A288,288,0,0,1,-165.89078646953845,-235.423548024657L-83.92679795373583,-118.24251597979807A145,145,0,0,0,-86.52050847454235,-116.35807498109723Z"><title>Bulgarie</title></path><path fill="#1fb432" display="" d="M-164.25192353057386,-236.56987470197154A288,288,0,0,1,-157.3330623950226,-241.22667240047053L-79.62825180312923,-121.17896481971385A145,145,0,0,0,-82.28793501477129,-119.38884265711255Z"><title>Colombie</title></path><path fill="#1fb432" display="" d="M-155.65410688977968,-242.3134313411971A288,288,0,0,1,-148.57254344283186,-246.71886700235927L-75.22706860130108,-123.95921970412341A145,145,0,0,0,-77.94929629788638,-122.26572376044038Z"><title>Troisième Reich</title></path><path fill="#1fb432" display="" d="M-146.85565946556474,-247.74465742561247A288,288,0,0,1,-139.62052150764006,-251.89305265118887L-70.72892126528137,-126.57969701594972A145,145,0,0,0,-73.51018462403401,-124.9850101273766Z"><title>Mexique</title></path><path fill="#1fb432" display="" d="M-137.86792204060973,-252.85655236161938A288,288,0,0,1,-130.48853532241066,-256.7425600663279L-66.13960769428394,-129.03701908385136A145,145,0,0,0,-68.97632179825109,-127.54319672638016Z"><title>Seconde République espagnole</title></path><path fill="#1fb432" display="" d="M-128.70247938345557,-257.64252715836955A288,288,0,0,1,-121.18835558551538,-261.2611384620351L-61.465043296488574,-131.3280185358813A145,145,0,0,0,-64.35355175532892,-129.93698617589297Z"><title>Hongrie</title></path><path fill="#1fb432" display="" d="M-119.3711453162843,-262.0964129206627A288,288,0,0,1,-111.73196978886087,-265.44296360442684L-56.71125336435957,-133.44974238207962A145,145,0,0,0,-59.64783302725753,-132.1632929945089Z"><title>Guatemala</title></path><path fill="#1fb432" display="" d="M-109.88594748746101,-266.21246880036057A288,288,0,0,1,-102.13156676657823,-269.2826453186391L-51.88436530832868,-135.3994558207377A145,145,0,0,0,-54.86523106295978,-134.21924757801332Z"><title>Israël</title></path><path fill="#1fb432" display="" d="M-100.25911186846393,-269.9853893960687A288,288,0,0,1,-92.39952098419239,-272.7752344365078L-46.99060075885281,-137.17464576342854A145,145,0,0,0,-50.011910410214455,-136.10219989816727Z"><title>Autriche-Hongrie</title></path><path fill="#1fb432" display="" d="M-90.5030469951852,-273.4103115915479A288,288,0,0,1,-82.54837658852107,-275.91622917581293L-42.03626754702652,-138.77302407425876A145,145,0,0,0,-45.094126769845694,-137.8097229184686Z"><title>Palestine mandataire</title></path><path fill="#1fb432" display="" d="M-80.63032797391493,-276.48282082404126A288,288,0,0,1,-72.5908312388627,-278.7015809428625L-37.027751574086075,-140.1925305191677A145,145,0,0,0,-40.118218932420454,-139.33961572248714Z"><title>Islande</title></path><path fill="#1fb432" display="" d="M-70.65368027262379,-279.19895677443685A288,288,0,0,1,-62.53971974031417,-281.12769955093887L-31.971508580284695,-141.43133542147152A145,145,0,0,0,-35.09060060784722,-140.68990635074198Z"><title>Deuxième République de Pologne</title></path><path fill="#1fb432" display="" d="M-60.58596331843657,-281.5552184719315A288,288,0,0,1,-52.40799750031373,-283.1914578478791L-26.874055823748627,-142.48784202023006A145,145,0,0,0,-30.017752158407163,-141.8588543424641Z"><title>Sainte-Lucie</title></path><path fill="#1fb432" display="" d="M-50.440153922438675,-283.5485688066168A288,288,0,0,1,-42.20872382973366,-284.89019574682675L-21.74196368003962,-143.36068852839622A145,145,0,0,0,-24.906212245873636,-142.8449529789677Z"><title>Finlande</title></path><path fill="#1fb432" display="" d="M-40.22932955318031,-285.17643844417023A288,288,0,0,1,-31.955045110045877,-286.2217236549576L-16.58184717325151,-144.04874988809493A145,145,0,0,0,-19.76256940348634,-143.64693122573968Z"><title>Canada</title></path><path fill="#1fb432" display="" d="M-29.966651480437807,-286.4367291376055A288,288,0,0,1,-21.660177848258062,-287.1843252957616L-11.400357449556962,-144.55113922076967A145,145,0,0,0,-14.593453543643502,-144.26375537074279Z"><title>Turquie</title></path><path fill="#1fb432" display="" d="M-19.66534781095937,-287.32781643181363A288,288,0,0,1,-11.337391641460933,-287.776759921242L-6.204173204194565,-144.86720897032686A145,145,0,0,0,-9.405527412258333,-144.69463035682165Z"><title>Biélorussie</title></path><path fill="#1fb432" display="" d="M-9.338696438060879,-287.848551757409A288,288,0,0,1,-0.9999920729451464,-287.99826391118063L-0.9999920729464841,-144.99655173780528A145,145,0,0,0,-4.20547800079458,-144.93900080649388Z"><title>Tanzanie</title></path></g><g id="labels" transform="translate(402.5,300)" text-anchor="middle"><text transform="rotate(90) translate(72.5,0) rotate(180)"><tspan x="0" y="4" style="font-family: Arial, sans-serif; font-size: 10px; fill: black; font-weight: normal; font-style: italic;"/></text><text transform="rotate(-71.48571428571428) translate(217.5,0) rotate(0)"><tspan x="0" y="4" style="font-family: Arial, sans-serif; font-size: 10px; fill: black; font-weight: normal; font-style: italic;">France</tspan></text><text transform="rotate(-38.57142857142857) translate(217.5,0) rotate(0)"><tspan x="0" y="4" style="font-family: Arial, sans-serif; font-size: 10px; fill: black; font-weight: normal; font-style: italic;">États-Unis</tspan></text><text transform="rotate(-10.800000000000011) translate(217.5,0) rotate(0)"><tspan x="0" y="4" style="font-family: Arial, sans-serif; font-size: 10px; fill: black; font-weight: normal; font-style: italic;">Royaume-Uni</tspan></text><text transform="rotate(10.800000000000011) translate(217.5,0) rotate(0)"><tspan x="0" y="4" style="font-family: Arial, sans-serif; font-size: 10px; fill: black; font-weight: normal; font-style: italic;">Suède</tspan></text><text transform="rotate(25.200000000000017) translate(217.5,0) rotate(0)"><tspan x="0" y="4" style="font-family: Arial, sans-serif; font-size: 10px; fill: black; font-weight: normal; font-style: italic;">Empire allemand</tspan></text><text transform="rotate(37.54285714285716) translate(217.5,0) rotate(0)"><tspan x="0" y="4" style="font-family: Arial, sans-serif; font-size: 10px; fill: black; font-weight: normal; font-style: italic;">Empire russe</tspan></text><text transform="rotate(49.88571428571433) translate(217.5,0) rotate(0)"><tspan x="0" y="4" style="font-family: Arial, sans-serif; font-size: 10px; fill: black; font-weight: normal; font-style: italic;">Espagne</tspan></text><text transform="rotate(61.200000000000045) translate(217.5,0) rotate(0)"><tspan x="0" y="4" style="font-family: Arial, sans-serif; font-size: 10px; fill: black; font-weight: normal; font-style: italic;">Union soviétique</tspan></text><text transform="rotate(71.48571428571432) translate(217.5,0) rotate(0)"><tspan x="0" y="4" style="font-family: Arial, sans-serif; font-size: 10px; fill: black; font-weight: normal; font-style: italic;">royaume d'Italie</tspan></text><text transform="rotate(81.7714285714286) translate(217.5,0) rotate(0)"><tspan x="0" y="4" style="font-family: Arial, sans-serif; font-size: 10px; fill: black; font-weight: normal; font-style: italic;">Allemagne</tspan></text><text transform="rotate(92.05714285714288) translate(217.5,0) rotate(180)"><tspan x="0" y="4" style="font-family: Arial, sans-serif; font-size: 10px; fill: black; font-weight: normal; font-style: italic;">Royaume-Uni de Grande-Bretagne et d'Irlande</tspan></text><text transform="rotate(102.34285714285716) translate(217.5,0) rotate(180)"><tspan x="0" y="4" style="font-family: Arial, sans-serif; font-size: 10px; fill: black; font-weight: normal; font-style: italic;">Pologne</tspan></text><text transform="rotate(111.60000000000002) translate(217.5,0) rotate(180)"><tspan x="0" y="4" style="font-family: Arial, sans-serif; font-size: 10px; fill: black; font-weight: normal; font-style: italic;">Norvège</tspan></text><text transform="rotate(118.80000000000007) translate(217.5,0) rotate(180)"><tspan x="0" y="4" style="font-family: Arial, sans-serif; font-size: 10px; fill: black; font-weight: normal; font-style: italic;">Irlande</tspan></text><text transform="rotate(124.97142857142859) translate(217.5,0) rotate(180)"><tspan x="0" y="4" style="font-family: Arial, sans-serif; font-size: 10px; fill: black; font-weight: normal; font-style: italic;">royaume de Prusse</tspan></text><text transform="rotate(131.1428571428572) translate(217.5,0) rotate(180)"><tspan x="0" y="4" style="font-family: Arial, sans-serif; font-size: 10px; fill: black; font-weight: normal; font-style: italic;">république de Weimar</tspan></text><text transform="rotate(137.31428571428572) translate(217.5,0) rotate(180)"><tspan x="0" y="4" style="font-family: Arial, sans-serif; font-size: 10px; fill: black; font-weight: normal; font-style: italic;">Italie</tspan></text><text transform="rotate(143.4857142857143) translate(217.5,0) rotate(180)"><tspan x="0" y="4" style="font-family: Arial, sans-serif; font-size: 10px; fill: black; font-weight: normal; font-style: italic;">Japon</tspan></text><text transform="rotate(149.65714285714284) translate(217.5,0) rotate(180)"><tspan x="0" y="4" style="font-family: Arial, sans-serif; font-size: 10px; fill: black; font-weight: normal; font-style: italic;">Royaume du Danemark</tspan></text><text transform="rotate(154.79999999999998) translate(217.5,0) rotate(180)"><tspan x="0" y="4" style="font-family: Arial, sans-serif; font-size: 10px; fill: black; font-weight: normal; font-style: italic;">Chine</tspan></text><text transform="rotate(158.91428571428574) translate(217.5,0) rotate(180)"><tspan x="0" y="4" style="font-family: Arial, sans-serif; font-size: 10px; fill: black; font-weight: normal; font-style: italic;">Suisse</tspan></text><text transform="rotate(163.02857142857147) translate(217.5,0) rotate(180)"><tspan x="0" y="4" style="font-family: Arial, sans-serif; font-size: 10px; fill: black; font-weight: normal; font-style: italic;">Chili</tspan></text><text transform="rotate(167.14285714285722) translate(217.5,0) rotate(180)"><tspan x="0" y="4" style="font-family: Arial, sans-serif; font-size: 10px; fill: black; font-weight: normal; font-style: italic;">Afrique du Sud</tspan></text><text transform="rotate(171.25714285714292) translate(217.5,0) rotate(180)"><tspan x="0" y="4" style="font-family: Arial, sans-serif; font-size: 10px; fill: black; font-weight: normal; font-style: italic;">Australie</tspan></text><text transform="rotate(175.37142857142868) translate(217.5,0) rotate(180)"><tspan x="0" y="4" style="font-family: Arial, sans-serif; font-size: 10px; fill: black; font-weight: normal; font-style: italic;">Autriche</tspan></text><text transform="rotate(179.48571428571438) translate(217.5,0) rotate(180)"><tspan x="0" y="4" style="font-family: Arial, sans-serif; font-size: 10px; fill: black; font-weight: normal; font-style: italic;">Tchécoslovaquie</tspan></text><text transform="rotate(183.60000000000014) translate(217.5,0) rotate(180)"><tspan x="0" y="4" style="font-family: Arial, sans-serif; font-size: 10px; fill: black; font-weight: normal; font-style: italic;">Grèce</tspan></text><text transform="rotate(186.68571428571443) translate(217.5,0) rotate(180)"><tspan x="0" y="4" style="font-family: Arial, sans-serif; font-size: 10px; fill: black; font-weight: normal; font-style: italic;">apatride</tspan></text><text transform="rotate(188.7428571428573) translate(217.5,0) rotate(180)"><tspan x="0" y="4" style="font-family: Arial, sans-serif; font-size: 10px; fill: black; font-weight: normal; font-style: italic;">Ville libre de Dantzig</tspan></text><text transform="rotate(190.80000000000013) translate(217.5,0) rotate(180)"><tspan x="0" y="4" style="font-family: Arial, sans-serif; font-size: 10px; fill: black; font-weight: normal; font-style: italic;">Égypte</tspan></text><text transform="rotate(192.85714285714306) translate(217.5,0) rotate(180)"><tspan x="0" y="4" style="font-family: Arial, sans-serif; font-size: 10px; fill: black; font-weight: normal; font-style: italic;">Empire ottoman</tspan></text><text transform="rotate(194.91428571428588) translate(217.5,0) rotate(180)"><tspan x="0" y="4" style="font-family: Arial, sans-serif; font-size: 10px; fill: black; font-weight: normal; font-style: italic;">Royaume d'Égypte</tspan></text><text transform="rotate(196.97142857142882) translate(217.5,0) rotate(180)"><tspan x="0" y="4" style="font-family: Arial, sans-serif; font-size: 10px; fill: black; font-weight: normal; font-style: italic;">République arabe unie</tspan></text><text transform="rotate(199.02857142857158) translate(217.5,0) rotate(180)"><tspan x="0" y="4" style="font-family: Arial, sans-serif; font-size: 10px; fill: black; font-weight: normal; font-style: italic;">Sultanat d'Égypte</tspan></text><text transform="rotate(201.08571428571452) translate(217.5,0) rotate(180)"><tspan x="0" y="4" style="font-family: Arial, sans-serif; font-size: 10px; fill: black; font-weight: normal; font-style: italic;">République d'Égypte</tspan></text><text transform="rotate(203.14285714285734) translate(217.5,0) rotate(180)"><tspan x="0" y="4" style="font-family: Arial, sans-serif; font-size: 10px; fill: black; font-weight: normal; font-style: italic;">Raj britannique</tspan></text><text transform="rotate(205.20000000000027) translate(217.5,0) rotate(180)"><tspan x="0" y="4" style="font-family: Arial, sans-serif; font-size: 10px; fill: black; font-weight: normal; font-style: italic;">Danemark</tspan></text><text transform="rotate(207.2571428571431) translate(217.5,0) rotate(180)"><tspan x="0" y="4" style="font-family: Arial, sans-serif; font-size: 10px; fill: black; font-weight: normal; font-style: italic;">Russie</tspan></text><text transform="rotate(209.31428571428597) translate(217.5,0) rotate(180)"><tspan x="0" y="4" style="font-family: Arial, sans-serif; font-size: 10px; fill: black; font-weight: normal; font-style: italic;">Russie soviétique</tspan></text><text transform="rotate(211.3714285714288) translate(217.5,0) rotate(180)"><tspan x="0" y="4" style="font-family: Arial, sans-serif; font-size: 10px; fill: black; font-weight: normal; font-style: italic;">Portugal</tspan></text><text transform="rotate(213.42857142857173) translate(217.5,0) rotate(180)"><tspan x="0" y="4" style="font-family: Arial, sans-serif; font-size: 10px; fill: black; font-weight: normal; font-style: italic;">Roumanie</tspan></text><text transform="rotate(215.48571428571455) translate(217.5,0) rotate(180)"><tspan x="0" y="4" style="font-family: Arial, sans-serif; font-size: 10px; fill: black; font-weight: normal; font-style: italic;">Pérou</tspan></text><text transform="rotate(217.54285714285743) translate(217.5,0) rotate(180)"><tspan x="0" y="4" style="font-family: Arial, sans-serif; font-size: 10px; fill: black; font-weight: normal; font-style: italic;">République dominicaine</tspan></text><text transform="rotate(219.60000000000025) translate(217.5,0) rotate(180)"><tspan x="0" y="4" style="font-family: Arial, sans-serif; font-size: 10px; fill: black; font-weight: normal; font-style: italic;">État libre d'Irlande</tspan></text><text transform="rotate(221.65714285714319) translate(217.5,0) rotate(180)"><tspan x="0" y="4" style="font-family: Arial, sans-serif; font-size: 10px; fill: black; font-weight: normal; font-style: italic;">Nigeria</tspan></text><text transform="rotate(223.71428571428606) translate(217.5,0) rotate(180)"><tspan x="0" y="4" style="font-family: Arial, sans-serif; font-size: 10px; fill: black; font-weight: normal; font-style: italic;">Maurice</tspan></text><text transform="rotate(225.77142857142894) translate(217.5,0) rotate(180)"><tspan x="0" y="4" style="font-family: Arial, sans-serif; font-size: 10px; fill: black; font-weight: normal; font-style: italic;">Trinité-et-Tobago</tspan></text><text transform="rotate(227.82857142857176) translate(217.5,0) rotate(180)"><tspan x="0" y="4" style="font-family: Arial, sans-serif; font-size: 10px; fill: black; font-weight: normal; font-style: italic;">Lituanie</tspan></text><text transform="rotate(229.8857142857147) translate(217.5,0) rotate(180)"><tspan x="0" y="4" style="font-family: Arial, sans-serif; font-size: 10px; fill: black; font-weight: normal; font-style: italic;">république fédérative socialiste de Yougoslavie</tspan></text><text transform="rotate(231.94285714285752) translate(217.5,0) rotate(180)"><tspan x="0" y="4" style="font-family: Arial, sans-serif; font-size: 10px; fill: black; font-weight: normal; font-style: italic;">Belgique</tspan></text><text transform="rotate(234.0000000000004) translate(217.5,0) rotate(180)"><tspan x="0" y="4" style="font-family: Arial, sans-serif; font-size: 10px; fill: black; font-weight: normal; font-style: italic;">Bulgarie</tspan></text><text transform="rotate(236.05714285714322) translate(217.5,0) rotate(180)"><tspan x="0" y="4" style="font-family: Arial, sans-serif; font-size: 10px; fill: black; font-weight: normal; font-style: italic;">Colombie</tspan></text><text transform="rotate(238.1142857142861) translate(217.5,0) rotate(180)"><tspan x="0" y="4" style="font-family: Arial, sans-serif; font-size: 10px; fill: black; font-weight: normal; font-style: italic;">Troisième Reich</tspan></text><text transform="rotate(240.17142857142898) translate(217.5,0) rotate(180)"><tspan x="0" y="4" style="font-family: Arial, sans-serif; font-size: 10px; fill: black; font-weight: normal; font-style: italic;">Mexique</tspan></text><text transform="rotate(242.2285714285719) translate(217.5,0) rotate(180)"><tspan x="0" y="4" style="font-family: Arial, sans-serif; font-size: 10px; fill: black; font-weight: normal; font-style: italic;">Seconde République espagnole</tspan></text><text transform="rotate(244.28571428571468) translate(217.5,0) rotate(180)"><tspan x="0" y="4" style="font-family: Arial, sans-serif; font-size: 10px; fill: black; font-weight: normal; font-style: italic;">Hongrie</tspan></text><text transform="rotate(246.34285714285755) translate(217.5,0) rotate(180)"><tspan x="0" y="4" style="font-family: Arial, sans-serif; font-size: 10px; fill: black; font-weight: normal; font-style: italic;">Guatemala</tspan></text><text transform="rotate(248.40000000000043) translate(217.5,0) rotate(180)"><tspan x="0" y="4" style="font-family: Arial, sans-serif; font-size: 10px; fill: black; font-weight: normal; font-style: italic;">Israël</tspan></text><text transform="rotate(250.45714285714337) translate(217.5,0) rotate(180)"><tspan x="0" y="4" style="font-family: Arial, sans-serif; font-size: 10px; fill: black; font-weight: normal; font-style: italic;">Autriche-Hongrie</tspan></text><text transform="rotate(252.5142857142862) translate(217.5,0) rotate(180)"><tspan x="0" y="4" style="font-family: Arial, sans-serif; font-size: 10px; fill: black; font-weight: normal; font-style: italic;">Palestine mandataire</tspan></text><text transform="rotate(254.57142857142907) translate(217.5,0) rotate(180)"><tspan x="0" y="4" style="font-family: Arial, sans-serif; font-size: 10px; fill: black; font-weight: normal; font-style: italic;">Islande</tspan></text><text transform="rotate(256.6285714285719) translate(217.5,0) rotate(180)"><tspan x="0" y="4" style="font-family: Arial, sans-serif; font-size: 10px; fill: black; font-weight: normal; font-style: italic;">Deuxième République de Pologne</tspan></text><text transform="rotate(258.6857142857148) translate(217.5,0) rotate(180)"><tspan x="0" y="4" style="font-family: Arial, sans-serif; font-size: 10px; fill: black; font-weight: normal; font-style: italic;">Sainte-Lucie</tspan></text><text transform="rotate(260.74285714285764) translate(217.5,0) rotate(180)"><tspan x="0" y="4" style="font-family: Arial, sans-serif; font-size: 10px; fill: black; font-weight: normal; font-style: italic;">Finlande</tspan></text><text transform="rotate(262.8000000000006) translate(217.5,0) rotate(180)"><tspan x="0" y="4" style="font-family: Arial, sans-serif; font-size: 10px; fill: black; font-weight: normal; font-style: italic;">Canada</tspan></text><text transform="rotate(264.85714285714334) translate(217.5,0) rotate(180)"><tspan x="0" y="4" style="font-family: Arial, sans-serif; font-size: 10px; fill: black; font-weight: normal; font-style: italic;">Turquie</tspan></text><text transform="rotate(266.9142857142863) translate(217.5,0) rotate(180)"><tspan x="0" y="4" style="font-family: Arial, sans-serif; font-size: 10px; fill: black; font-weight: normal; font-style: italic;">Biélorussie</tspan></text><text transform="rotate(268.9714285714291) translate(217.5,0) rotate(180)"><tspan x="0" y="4" style="font-family: Arial, sans-serif; font-size: 10px; fill: black; font-weight: normal; font-style: italic;">Tanzanie</tspan></text></g></svg>